<?xml version="1.0" standalone="no"?>
<!DOCTYPE svg PUBLIC "-//W3C//DTD SVG 20010904//EN"
 "http://www.w3.org/TR/2001/REC-SVG-20010904/DTD/svg10.dtd">
<svg version="1.0" xmlns="http://www.w3.org/2000/svg"
 width="265.000000pt" height="265.000000pt" viewBox="0 0 265.000000 265.000000"
 preserveAspectRatio="xMidYMid meet">
<metadata>
Created by potrace 1.11, written by Peter Selinger 2001-2013
</metadata>
<g transform="translate(0.000000,265.000000) scale(0.100000,-0.100000)"
fill="#000000" stroke="none">
<path d="M0 1330 l0 -1310 1325 0 1325 0 0 1011 0 1011 -106 151 c-58 83 -108
157 -111 164 -4 10 19 13 106 13 l111 0 0 135 0 135 -1325 0 -1325 0 0 -1310z
m1733 1030 c104 -10 281 -56 357 -93 194 -94 319 -237 376 -432 23 -77 26
-306 5 -380 -57 -204 -188 -357 -386 -449 -96 -45 -123 -56 -138 -56 -9 0 -18
-3 -20 -7 -3 -5 44 -78 105 -163 60 -85 125 -177 144 -205 19 -27 57 -81 85
-120 28 -38 61 -86 74 -105 13 -19 46 -66 74 -105 28 -38 56 -78 61 -88 10
-16 -5 -17 -286 -15 l-297 3 -68 95 c-37 52 -89 125 -116 163 -26 37 -64 90
-83 117 -19 27 -53 76 -76 107 -22 32 -73 104 -113 161 l-72 102 -289 0 -290
0 0 -375 0 -375 -230 0 -230 0 0 600 0 600 361 2 360 3 -38 52 c-21 28 -87
122 -148 208 -60 86 -117 165 -125 175 -8 11 -31 42 -50 70 -19 28 -53 76 -76
108 -150 209 -284 401 -284 406 0 10 1309 6 1413 -4z"/>
<path d="M1279 1868 c16 -24 67 -94 113 -156 45 -62 117 -160 158 -218 41 -58
84 -117 95 -130 l20 -23 77 18 c226 54 330 176 284 335 -29 97 -103 161 -235
200 -44 13 -103 16 -298 16 l-244 0 30 -42z"/>
</g>
</svg>
